Patient4_TMGait_0pt3_01_left_13_EMG.mot
version=1
nRows=23
nColumns=33
inDegrees=no
endheader
time	1LAddLong	2LGlutMax	3LGlutMed	4LIliopsoas	5LSemiMemb	6LBicFemLong	7LRecFem	8LVastMed	9LVastLat	10LGasMed	11LTibAnt	12lTibPost	13LPeroneusLong	14LSol	15LExtDigLong	16LFlexDigLong	17RAddLong	18RGlutMax	19RGlutMed	20RIliopsoas	21RSemiMemb	22RBicFemLong	23RRecFem	24RVastMed	25RVastLat	26RGasMed	27RTibAnt	28RTibPost	29RPeroneusLong	30RSol	31RExtDigLong	32RFlexDigLong
24.74	-0.01297	0.20355	-0.036316	0.003662	0.062408	0.072784	-0.10559	0.022583	-0.17151	0.000916	-0.15717	0.000916	0.018616	-0.13825	-0.31815	-0.23514	0.017548	-0.088501	-0.095062	-0.054932	-0.016785	0.16785	0.10269	-0.039673	0.028687	0.007629	0.001678	-0.005341	0.383	-0.027313	-0.00351	-0.012512
24.741	-0.015411	0.1442	-0.080109	-0.000916	-0.010986	0.1506	-0.022583	0.039978	-0.19455	-0.006409	-0.099182	0.004883	0.036316	-0.10422	-0.23636	0.74036	0.02121	-0.13321	-0.15442	-0.012665	-0.032196	0.1442	0.091858	-0.08606	0.015869	-0.00412	-0.011139	-0.007477	-0.1648	0.019379	0.001373	-0.011902
24.742	-0.014496	0.12497	-0.11429	0.001831	-0.11475	-0.010834	0.093384	0.019379	-0.14923	0.00885	0.027161	0.002441	0.02533	-0.056458	-0.10452	-0.10452	0.000305	-0.11841	-0.18875	0.058136	-0.060425	0.08728	0.078278	-0.16068	0.03891	-0.015106	0.009918	-0.003967	-0.19455	0.092468	0.002441	-0.004883
24.743	-0.016022	0.11307	-0.12482	-0.009003	-0.16266	0.011749	0.086975	0.014038	-0.12772	-0.010376	0.08606	0.009308	0.006561	-0.056458	-0.03891	-0.03479	0.002441	-0.06958	-0.15152	0.059509	-0.045013	0.03418	0.11734	-0.07019	0.027771	-0.019226	0.003357	0.003815	0.45471	0.23071	0.000458	-0.00061
24.744	-0.004883	0.11765	-0.14481	0.007172	-0.18982	0.02594	0.067749	0.037079	-0.005798	0.003204	0.040283	-0.002289	0.059509	-0.11444	-0.015717	0.11566	-0.015717	-0.071259	-0.12497	-0.03479	-0.043335	0.026398	0.11597	-0.047302	0.032043	-0.01236	-0.017548	-0.003052	0.61951	0.071716	0.000305	-0.003967
24.745	0.006561	0.18921	-0.064545	-0.011292	-0.12222	0.091248	0.052795	0.030975	0.021973	0.094604	0.028992	0.005341	0.065613	-0.12222	0.012512	0.16129	-0.058746	-0.026398	-0.12466	-0.091705	-0.005188	0.020142	0.065155	0.045929	0.051727	-0.001068	-0.02121	-0.001526	-0.37827	-0.10193	0.000763	0.001373
24.746	0.030365	0.21286	-0.018005	0.001068	0.018921	0.1445	0.023499	0.000305	0.029602	0.15442	0.022278	0.004425	0.053253	-0.16357	0.041504	-0.070648	-0.037537	0.009308	-0.16693	-0.068207	0.021515	-0.05249	0.082855	-0.022583	0.039673	0.000458	-0.050354	-0.00351	-0.42068	-0.096436	-0.00351	-0.001678
24.747	0.037842	0.21072	0.019073	-0.005798	0.058746	0.15442	0.077972	-0.023193	0.016174	0.10925	0.016327	-0.000305	0.022125	-0.17166	0.063782	-0.008087	-0.02533	0.016174	-0.19821	0.092163	0.063782	-0.088806	0.082397	-0.038147	0.041504	0.000458	-0.050964	-0.009003	-0.21973	-0.093536	-0.00351	-0.002441
24.748	0.026703	0.12802	0.16647	-0.018158	0.067902	0.10223	0.09964	-0.008545	-0.016785	0.10849	0.010529	-0.001221	0.024719	-0.16022	0.086975	-0.035553	0.027771	-0.030823	-0.16159	0.10651	0.042572	-0.092773	0.14175	-0.021362	0.014954	-0.007935	-0.044861	-0.005188	-0.12528	-0.079041	-0.000916	-0.007935
24.749	0.013275	0.11414	0.19318	-0.003357	0.053101	0.37033	0.099487	0.013275	-0.036316	-0.064087	-0.005035	0.003967	0.028839	-0.10452	0.11292	-0.032806	0.070343	-0.073242	-0.15823	0.038147	0.066223	-0.006409	0.15015	-0.010529	-0.000153	-0.00351	-0.006866	-0.002747	-0.082245	-0.12863	-0.001678	-0.00946
24.75	0.002899	0.088959	0.063934	0.009308	0.079041	0.51346	0.13351	0.018921	-0.034027	-0.096436	-0.040588	-0.000305	0.044708	-0.042419	0.10086	-0.023804	0.07843	-0.021667	-0.16968	-0.002441	0.061493	0.063782	0.13367	-0.020752	0.012817	0.000305	0.029449	-0.006561	-0.093994	-0.2478	0	-0.013275
24.751	-0.015411	0.054321	0.035248	0.004425	0.080109	0.31158	0.15305	0.012817	0.021667	-0.020142	-0.04837	0.000305	0.063477	-0.06546	0.033722	-0.043182	0.063934	0.011749	-0.065002	-0.03891	0.014648	0.030823	0.13702	-0.02594	0.00824	-0.006714	0.03418	-0.007935	-0.16007	-0.20767	-0.000153	-0.014954
24.752	-0.014038	-0.042419	0.052185	0.003204	0.017853	0.13916	0.11139	-0.001526	0.041046	-0.000763	-0.035858	0.006409	0.019836	-0.062714	0.012054	-0.033264	0.04425	-0.016632	0.028229	-0.016785	0.004425	-0.015869	0.13977	-0.022583	0.027313	-0.00412	0.014801	-0.008087	-0.047607	-0.17395	0	-0.018616
24.753	-0.003052	-0.12665	0.002136	0.021515	-0.046234	-0.11246	0.031738	-0.011597	0.061951	-0.019531	0.002441	-0.002289	-0.018158	0.011444	0.10376	-0.031891	0.00885	-0.003662	-0.13123	-0.038605	0.059052	-0.013885	0.086975	0.027924	0.02533	-0.006561	-0.079956	-0.00885	0.002899	-0.19821	-0.00061	-0.021362
24.754	0.007629	-0.24185	-0.002136	0.004425	-0.033722	-0.35111	0.069733	-0.009155	0.061951	-0.032806	0.028381	0.001068	0.045624	0.059509	-0.052795	-0.031433	-0.009918	0.032959	-0.30472	0.004425	0.082245	0.023041	0.1152	-0.052948	0.007324	-0.001984	-0.068512	-0.005646	-0.06012	-0.14389	0.009155	-0.0177
24.755	0.007477	-0.41672	-0.11887	0.000916	0.010376	-0.47897	0.11734	-0.010071	-0.039978	-0.021057	0.096283	0.002899	0.030518	0.048218	0.10742	-0.02182	-0.019073	-0.024414	-0.16769	-0.002747	0.056152	0.048981	0.08316	-0.053864	0.022278	-0.006256	-0.008087	-0.012054	-0.080719	-0.052338	0.000763	-0.011902
24.756	0.020142	-0.35461	-0.13214	0.007629	0.024109	-0.34302	0.081024	-0.002441	-0.061493	-0.010071	0.15579	0	-0.008392	0.037537	0.11414	-0.019836	-0.038757	0.011902	-0.14099	-0.04364	-0.019531	0.031433	0.055237	-0.071259	0.038147	-0.008392	0.035553	-0.002289	-0.003052	-0.03479	0.000153	-0.015564
24.757	0.00946	-0.32181	-0.1622	0.004272	0.03418	-0.16144	0.063629	0.014191	-0.026398	-0.019989	0.13077	-0.003204	-0.018768	0.016174	0.041962	-0.024719	-0.095367	0.055847	-0.19302	-0.1236	-0.062866	0.013885	0.095978	-0.087891	0.026093	-0.001831	0.066071	-0.003204	0.14267	-0.047913	-0.003357	-0.017853
24.758	-0.002136	-0.40314	-0.37155	-0.005951	-0.028076	-0.21484	0.095673	0.019531	0.066833	-0.015717	0.046234	0.00412	-0.000763	-0.011444	-0.16022	-0.014648	-0.090637	0.029144	-0.27435	-0.026855	-0.063782	-0.000458	0.046387	-0.095367	0.022888	-0.00061	0.10773	-0.001526	0.11139	-0.051117	-0.002136	-0.010071
24.759	0.01236	-0.4071	-0.32776	-0.010529	-0.049591	-0.22415	0.12054	0.019226	0.22018	-0.000458	0.009308	0.000763	0.002899	0.1088	-0.15778	-0.009918	-0.058441	0.11475	-0.24246	0.074005	0.013428	-0.10635	0.075684	-0.10544	0.028839	0.003815	0.10056	-0.004425	0.15549	-0.076141	-0.005493	-0.012817
24.76	0.01709	-0.37598	-0.070953	-0.000305	-0.046082	-0.24704	0.13229	0.024719	0.20676	-0.012512	-0.041351	0.004272	-0.035553	0.099945	-0.007172	-0.003815	-0.011902	0.17899	-0.23422	0.23987	0.029449	-0.18951	0.076141	-0.06424	0.037994	0.005341	0.042572	-0.009308	0.45685	-0.096893	-0.003662	-0.007477
24.761	0.043945	-0.29419	-0.079956	0.004272	-0.035553	-0.44281	0.12222	0.005646	0.084381	0.060425	-0.040131	0.008087	-0.001221	-0.06073	0.019684	-0.021973	0.011597	0.14923	-0.21454	0.3009	-0.010071	-0.19989	0.11292	-0.14023	0.050201	0.009766	0.024872	-0.002594	-0.071869	-0.055389	-0.000153	-0.002747
24.762	0.0383	-0.16495	0.11398	0.014191	0.097198	-0.38452	0.082855	0.007172	0.044403	0.13138	-0.043335	0.002289	0.041504	-0.15335	0.080566	-0.004272	0.042267	0.11307	-0.017548	0.17227	-0.071716	-0.13321	0.1236	-0.096283	0.066376	0.001221	0.056	-0.01236	-0.43671	0.011444	0.000916	-0.012207
